<svg width="16" height="16" viewBox="0 0 16 16" fill="none" xmlns="http://www.w3.org/2000/svg">
<mask id="mask0" mask-type="alpha" maskUnits="userSpaceOnUse" x="0" y="0" width="16" height="16">
<path fill-rule="evenodd" clip-rule="evenodd" d="M11.8508 8.90419C12.3866 9.1051 12.9893 9.23905 13.5921 9.30602C14.5966 9.43996 15.3333 10.3106 15.3333 11.3151V13.3243C15.3333 13.8601 15.0654 14.3288 14.7306 14.7307C14.3957 15.1325 13.86 15.3334 13.3242 15.3334H13.1233C10.9802 15.1325 8.83713 14.3958 7.02891 13.1903C5.35463 12.1188 3.88127 10.6454 2.80973 8.97116C1.67122 7.16294 0.86757 5.01987 0.666656 2.87679C0.666656 2.34102 0.800599 1.80526 1.13545 1.40343C1.47031 1.0016 1.93911 0.733719 2.47488 0.666748H2.67579H4.68492C5.68949 0.666748 6.56011 1.40343 6.69405 2.408C6.76102 3.01074 6.89497 3.61348 7.09588 4.14924C7.36376 4.88593 7.16285 5.75655 6.62708 6.29232L6.15828 6.76112C6.96194 8.03357 8.03347 9.03813 9.23895 9.84179L9.70775 9.37299C10.3105 8.83722 11.1141 8.63631 11.8508 8.90419ZM13.9939 13.3243V11.3151C13.9939 10.9803 13.726 10.7124 13.4581 10.6454C12.7884 10.5115 12.1187 10.3775 11.449 10.1097C11.1811 9.97572 10.9132 10.0427 10.7123 10.2436L9.84169 11.1142C9.64077 11.3821 9.30592 11.3821 9.03803 11.2482C7.22981 10.2436 5.75645 8.77024 4.75188 6.96202C4.61794 6.69414 4.68491 6.35928 4.88583 6.15837L5.75645 5.35472C5.89039 5.1538 5.95736 4.88592 5.89039 4.61803C5.62251 4.01529 5.4216 3.27861 5.35462 2.6089C5.28765 2.27405 5.01977 2.00616 4.68491 2.00616H2.67578C2.47487 2.00616 2.27395 2.1401 2.14001 2.27405C2.07304 2.40799 2.00607 2.54193 2.00607 2.74284C2.20698 4.68501 2.87669 6.5602 3.94823 8.23447C4.9528 9.77481 6.22525 11.1142 7.76558 12.0518C9.43986 13.1234 11.3151 13.7931 13.2572 13.994C13.5251 13.994 13.659 13.927 13.793 13.7931C13.9269 13.6591 13.9939 13.5252 13.9939 13.3243Z" fill="white"/>
</mask>
<g mask="url(#mask0)">
<path fill-rule="evenodd" clip-rule="evenodd" d="M0 0H16V16H0V0Z" fill="#666666"/>
</g>
</svg>
