<svg width="44" height="44" viewBox="0 0 44 44" fill="none" xmlns="http://www.w3.org/2000/svg">
<circle cx="22" cy="22" r="22" fill="#BF0A30"/>
<path d="M28.7 25.7C28.5 25.9 28.3 26 28 26C27.7 26 27.5 25.9 27.3 25.7L22 20.4L16.7 25.7C16.3 26.1 15.7 26.1 15.3 25.7C14.9 25.3 14.9 24.7 15.3 24.3L21.3 18.3C21.7 17.9 22.3 17.9 22.7 18.3L28.7 24.3C29.1 24.7 29.1 25.3 28.7 25.7Z" fill="black"/>
<mask id="mask0" mask-type="alpha" maskUnits="userSpaceOnUse" x="15" y="18" width="14" height="8">
<path d="M28.7 25.7C28.5 25.9 28.3 26 28 26C27.7 26 27.5 25.9 27.3 25.7L22 20.4L16.7 25.7C16.3 26.1 15.7 26.1 15.3 25.7C14.9 25.3 14.9 24.7 15.3 24.3L21.3 18.3C21.7 17.9 22.3 17.9 22.7 18.3L28.7 24.3C29.1 24.7 29.1 25.3 28.7 25.7Z" fill="white"/>
</mask>
<g mask="url(#mask0)">
<rect x="10" y="10" width="24" height="24" fill="white"/>
</g>
</svg>
