<svg width="40" height="40" viewBox="0 0 40 40" fill="none" xmlns="http://www.w3.org/2000/svg">
<rect width="40" height="40" fill="#CECED2"/>
<circle cx="20" cy="20" r="20" fill="white"/>
<path fill-rule="evenodd" clip-rule="evenodd" d="M19.7437 21.1446C18.5512 21.1446 15.6226 21.1485 15.6226 21.1485V18.1242H22.9434C23.4533 21.7836 21.9152 27.2727 15.6226 27.2727C11.4128 27.2727 8 23.8538 8 19.6364C8 15.4189 11.4128 12 15.6226 12C17.598 12 19.3979 12.7527 20.7521 13.9876C19.7027 14.9804 19.3663 15.3588 19.0804 15.6804C18.9317 15.8476 18.7967 15.9995 18.5822 16.2144C17.7989 15.5655 16.9449 15.0999 15.6226 15.0999C13.1217 15.0999 11.1698 17.131 11.1698 19.6364C11.1698 22.1418 13.1217 24.1728 15.6226 24.1728C18.0939 24.1728 19.098 23.1052 19.7437 21.1446ZM29.3585 15.6292V18.2754H32V20.1656H29.3585V22.8875H27.4717V20.1656H24.7547V18.2754H27.4717V15.6292H29.3585Z" fill="white"/>
<mask id="mask0" mask-type="alpha" maskUnits="userSpaceOnUse" x="8" y="12" width="24" height="16">
<path fill-rule="evenodd" clip-rule="evenodd" d="M19.7437 21.1446C18.5512 21.1446 15.6226 21.1485 15.6226 21.1485V18.1242H22.9434C23.4533 21.7836 21.9152 27.2727 15.6226 27.2727C11.4128 27.2727 8 23.8538 8 19.6364C8 15.4189 11.4128 12 15.6226 12C17.598 12 19.3979 12.7527 20.7521 13.9876C19.7027 14.9804 19.3663 15.3588 19.0804 15.6804C18.9317 15.8476 18.7967 15.9995 18.5822 16.2144C17.7989 15.5655 16.9449 15.0999 15.6226 15.0999C13.1217 15.0999 11.1698 17.131 11.1698 19.6364C11.1698 22.1418 13.1217 24.1728 15.6226 24.1728C18.0939 24.1728 19.098 23.1052 19.7437 21.1446ZM29.3585 15.6292V18.2754H32V20.1656H29.3585V22.8875H27.4717V20.1656H24.7547V18.2754H27.4717V15.6292H29.3585Z" fill="white"/>
</mask>
<g mask="url(#mask0)">
<path fill-rule="evenodd" clip-rule="evenodd" d="M0 0H40V40H0V0Z" fill="#002868"/>
</g>
</svg>
