<svg width="40" height="40" viewBox="0 0 40 40" fill="none" xmlns="http://www.w3.org/2000/svg">
<circle cx="20" cy="20" r="20" fill="white"/>
<path fill-rule="evenodd" clip-rule="evenodd" d="M26 10H14C11.7909 10 10 11.7909 10 14V26C10 28.2091 11.7909 30 14 30H26C28.2091 30 30 28.2091 30 26V14C30 11.7909 28.2091 10 26 10ZM11.6 14C11.6 12.6745 12.6745 11.6 14 11.6H26C27.3255 11.6 28.4 12.6745 28.4 14V26C28.4 27.3255 27.3255 28.4 26 28.4H14C12.6745 28.4 11.6 27.3255 11.6 26V14ZM20 26C16.6863 26 14 23.3137 14 20C14 16.6863 16.6863 14 20 14C23.3137 14 26 16.6863 26 20C26 23.3137 23.3137 26 20 26ZM20 24.4C22.4301 24.4 24.4 22.4301 24.4 20C24.4 17.5699 22.4301 15.6 20 15.6C17.5699 15.6 15.6 17.5699 15.6 20C15.6 22.4301 17.5699 24.4 20 24.4ZM26 15.2C26.6627 15.2 27.2 14.6627 27.2 14C27.2 13.3373 26.6627 12.8 26 12.8C25.3373 12.8 24.8 13.3373 24.8 14C24.8 14.6627 25.3373 15.2 26 15.2Z" fill="white"/>
<mask id="mask0" mask-type="alpha" maskUnits="userSpaceOnUse" x="10" y="10" width="20" height="20">
<path fill-rule="evenodd" clip-rule="evenodd" d="M26 10H14C11.7909 10 10 11.7909 10 14V26C10 28.2091 11.7909 30 14 30H26C28.2091 30 30 28.2091 30 26V14C30 11.7909 28.2091 10 26 10ZM11.6 14C11.6 12.6745 12.6745 11.6 14 11.6H26C27.3255 11.6 28.4 12.6745 28.4 14V26C28.4 27.3255 27.3255 28.4 26 28.4H14C12.6745 28.4 11.6 27.3255 11.6 26V14ZM20 26C16.6863 26 14 23.3137 14 20C14 16.6863 16.6863 14 20 14C23.3137 14 26 16.6863 26 20C26 23.3137 23.3137 26 20 26ZM20 24.4C22.4301 24.4 24.4 22.4301 24.4 20C24.4 17.5699 22.4301 15.6 20 15.6C17.5699 15.6 15.6 17.5699 15.6 20C15.6 22.4301 17.5699 24.4 20 24.4ZM26 15.2C26.6627 15.2 27.2 14.6627 27.2 14C27.2 13.3373 26.6627 12.8 26 12.8C25.3373 12.8 24.8 13.3373 24.8 14C24.8 14.6627 25.3373 15.2 26 15.2Z" fill="white"/>
</mask>
<g mask="url(#mask0)">
<path fill-rule="evenodd" clip-rule="evenodd" d="M0 0H40V40H0V0Z" fill="#002868"/>
</g>
</svg>
