<svg width="40" height="40" viewBox="0 0 40 40" fill="none" xmlns="http://www.w3.org/2000/svg">
<circle cx="20" cy="20" r="20" fill="white"/>
<path fill-rule="evenodd" clip-rule="evenodd" d="M13.1625 10C11.9669 10 11 10.9714 11 12.1662C11 13.3624 11.9669 14.3333 13.1625 14.3333C14.3554 14.3333 15.3246 13.3624 15.3246 12.1662C15.3246 10.9714 14.3554 10 13.1625 10ZM11.2959 27.9998H15.0281V15.9768H11.2959V27.9998ZM20.9977 17.6197C21.4956 16.6745 22.7131 15.6775 24.5277 15.6775C28.3023 15.6775 29 18.167 29 21.4053V28H25.2739V22.1532C25.2739 20.7587 25.2464 18.9652 23.3345 18.9652C21.3936 18.9652 21.0974 20.4839 21.0974 22.0529V28H17.368V15.977H20.947V17.6197H20.9977Z" fill="#1A1919"/>
<mask id="mask0" mask-type="alpha" maskUnits="userSpaceOnUse" x="11" y="10" width="18" height="18">
<path fill-rule="evenodd" clip-rule="evenodd" d="M13.1625 10C11.9669 10 11 10.9714 11 12.1662C11 13.3624 11.9669 14.3333 13.1625 14.3333C14.3554 14.3333 15.3246 13.3624 15.3246 12.1662C15.3246 10.9714 14.3554 10 13.1625 10ZM11.2959 27.9998H15.0281V15.9768H11.2959V27.9998ZM20.9977 17.6197C21.4956 16.6745 22.7131 15.6775 24.5277 15.6775C28.3023 15.6775 29 18.167 29 21.4053V28H25.2739V22.1532C25.2739 20.7587 25.2464 18.9652 23.3345 18.9652C21.3936 18.9652 21.0974 20.4839 21.0974 22.0529V28H17.368V15.977H20.947V17.6197H20.9977Z" fill="white"/>
</mask>
<g mask="url(#mask0)">
<path fill-rule="evenodd" clip-rule="evenodd" d="M0 0H40V40H0V0Z" fill="#002868"/>
</g>
</svg>
