<svg width="40" height="40" viewBox="0 0 40 40" fill="none" xmlns="http://www.w3.org/2000/svg">
<circle cx="20" cy="20" r="20" fill="white"/>
<path fill-rule="evenodd" clip-rule="evenodd" d="M30 13.973C29.2651 14.3077 28.4739 14.534 27.644 14.6351C28.4915 14.1151 29.1419 13.2905 29.4483 12.3082C28.6547 12.7897 27.7778 13.14 26.841 13.3278C26.0944 12.5104 25.0273 12 23.8463 12C21.5819 12 19.7447 13.884 19.7447 16.2073C19.7447 16.5371 19.7799 16.8573 19.8503 17.1655C16.4401 16.9898 13.4173 15.3165 11.3923 12.768C11.0389 13.3916 10.837 14.1151 10.837 14.8855C10.837 16.3445 11.5613 17.6326 12.6624 18.3874C11.991 18.3669 11.357 18.1755 10.803 17.8625V17.9143C10.803 19.9535 12.2175 21.6545 14.0958 22.0397C13.7518 22.1384 13.3891 22.1878 13.0146 22.1878C12.7505 22.1878 12.4922 22.1625 12.2422 22.1132C12.7646 23.784 14.2789 25.0011 16.075 25.0336C14.671 26.1628 12.9007 26.8357 10.979 26.8357C10.648 26.8357 10.3205 26.8164 10 26.7779C11.816 27.9697 13.9737 28.6667 16.2898 28.6667C23.8381 28.6667 27.9644 22.2564 27.9644 16.696C27.9644 16.5131 27.9609 16.3301 27.9539 16.1507C28.7556 15.5572 29.4518 14.8169 30 13.973" fill="white"/>
<mask id="mask0" mask-type="alpha" maskUnits="userSpaceOnUse" x="10" y="12" width="20" height="17">
<path fill-rule="evenodd" clip-rule="evenodd" d="M30 13.973C29.2651 14.3077 28.4739 14.534 27.644 14.6351C28.4915 14.1151 29.1419 13.2905 29.4483 12.3082C28.6547 12.7897 27.7778 13.14 26.841 13.3278C26.0944 12.5104 25.0273 12 23.8463 12C21.5819 12 19.7447 13.884 19.7447 16.2073C19.7447 16.5371 19.7799 16.8573 19.8503 17.1655C16.4401 16.9898 13.4173 15.3165 11.3923 12.768C11.0389 13.3916 10.837 14.1151 10.837 14.8855C10.837 16.3445 11.5613 17.6326 12.6624 18.3874C11.991 18.3669 11.357 18.1755 10.803 17.8625V17.9143C10.803 19.9535 12.2175 21.6545 14.0958 22.0397C13.7518 22.1384 13.3891 22.1878 13.0146 22.1878C12.7505 22.1878 12.4922 22.1625 12.2422 22.1132C12.7646 23.784 14.2789 25.0011 16.075 25.0336C14.671 26.1628 12.9007 26.8357 10.979 26.8357C10.648 26.8357 10.3205 26.8164 10 26.7779C11.816 27.9697 13.9737 28.6667 16.2898 28.6667C23.8381 28.6667 27.9644 22.2564 27.9644 16.696C27.9644 16.5131 27.9609 16.3301 27.9539 16.1507C28.7556 15.5572 29.4518 14.8169 30 13.973" fill="white"/>
</mask>
<g mask="url(#mask0)">
<path fill-rule="evenodd" clip-rule="evenodd" d="M0 0H40V40H0V0Z" fill="#002868"/>
</g>
</svg>
