<svg width="40" height="40" viewBox="0 0 40 40" fill="none" xmlns="http://www.w3.org/2000/svg">
<circle cx="20" cy="20" r="20" fill="white"/>
<path fill-rule="evenodd" clip-rule="evenodd" d="M17.522 23.635L17.5212 16.8439L24.0057 20.2511L17.522 23.635ZM31.76 15.6671C31.76 15.6671 31.5252 14.0016 30.806 13.2682C29.8932 12.3051 28.8703 12.3006 28.4015 12.2447C25.043 12 20.0052 12 20.0052 12H19.9948C19.9948 12 14.957 12 11.5985 12.2447C11.129 12.3006 10.1067 12.3051 9.19325 13.2682C8.474 14.0016 8.24 15.6671 8.24 15.6671C8.24 15.6671 8 17.6234 8 19.5789V21.4128C8 23.3691 8.24 25.3246 8.24 25.3246C8.24 25.3246 8.474 26.9901 9.19325 27.7235C10.1067 28.6865 11.306 28.6563 11.84 28.7568C13.76 28.9426 20 29 20 29C20 29 25.043 28.9924 28.4015 28.7477C28.8703 28.6911 29.8932 28.6865 30.806 27.7235C31.5252 26.9901 31.76 25.3246 31.76 25.3246C31.76 25.3246 32 23.3691 32 21.4128V19.5789C32 17.6234 31.76 15.6671 31.76 15.6671V15.6671Z" fill="white"/>
<mask id="mask0" mask-type="alpha" maskUnits="userSpaceOnUse" x="8" y="12" width="24" height="17">
<path fill-rule="evenodd" clip-rule="evenodd" d="M17.522 23.635L17.5212 16.8439L24.0057 20.2511L17.522 23.635ZM31.76 15.6671C31.76 15.6671 31.5252 14.0016 30.806 13.2682C29.8932 12.3051 28.8703 12.3006 28.4015 12.2447C25.043 12 20.0052 12 20.0052 12H19.9948C19.9948 12 14.957 12 11.5985 12.2447C11.129 12.3006 10.1067 12.3051 9.19325 13.2682C8.474 14.0016 8.24 15.6671 8.24 15.6671C8.24 15.6671 8 17.6234 8 19.5789V21.4128C8 23.3691 8.24 25.3246 8.24 25.3246C8.24 25.3246 8.474 26.9901 9.19325 27.7235C10.1067 28.6865 11.306 28.6563 11.84 28.7568C13.76 28.9426 20 29 20 29C20 29 25.043 28.9924 28.4015 28.7477C28.8703 28.6911 29.8932 28.6865 30.806 27.7235C31.5252 26.9901 31.76 25.3246 31.76 25.3246C31.76 25.3246 32 23.3691 32 21.4128V19.5789C32 17.6234 31.76 15.6671 31.76 15.6671V15.6671Z" fill="white"/>
</mask>
<g mask="url(#mask0)">
<path fill-rule="evenodd" clip-rule="evenodd" d="M0 0H40V40H0V0Z" fill="#002868"/>
</g>
</svg>
