<svg width="255" height="42" viewBox="0 0 255 42" fill="none" xmlns="http://www.w3.org/2000/svg">
<path fill-rule="evenodd" clip-rule="evenodd" d="M13.4222 41.6955L17.9932 30.5635L22.4662 41.6955L28.6092 24.3705L27.0362 23.7315L22.6132 34.5935L18.2142 23.6825L13.7902 34.5935L11.2592 27.2705C11.2102 27.0905 11.1852 26.9425 11.1852 26.8285C11.1852 26.2715 11.8332 25.9925 13.1272 25.9925L12.5862 24.3215H6.00018V25.9925C6.75418 25.9925 7.29418 26.0835 7.62218 26.2625C7.73718 26.3285 7.83518 26.4265 7.91718 26.5575C7.98218 26.6885 8.05618 26.8445 8.13918 27.0245L13.4222 41.6955ZM33.5249 38.6238C32.9349 38.0678 32.6309 37.3798 32.6149 36.5598L31.9509 35.6758H40.0369C40.0689 33.4798 39.5039 31.8418 38.3409 30.7598C37.4399 29.9078 36.2759 29.4828 34.8509 29.4828C33.3599 29.4828 32.1239 29.9818 31.1409 30.9818C30.0749 32.0788 29.5429 33.5208 29.5429 35.3068C29.5429 36.9938 30.0349 38.4198 31.0179 39.5828C32.0009 40.7458 33.2539 41.3268 34.7769 41.3268C35.3669 41.3268 36.0389 41.2368 36.7929 41.0568V39.4348H35.6619C34.8099 39.4348 34.0979 39.1648 33.5249 38.6238ZM38.3579 34.1758C38.3579 33.9958 38.3339 33.7748 38.2839 33.5128C38.0389 32.0378 37.2849 31.3008 36.0239 31.3008C34.4999 31.3008 33.6229 32.2508 33.3939 34.1518L34.1309 34.1758H38.3579ZM56.7961 26.6067C57.6811 26.6067 58.2051 27.1727 58.3691 28.3027L60.0151 27.9587L59.5241 24.3217H48.9811L48.6381 26.0167C49.7681 26.0167 50.3331 26.4597 50.3331 27.3447V41.0817H53.3561V34.6427C53.3561 34.2497 53.5681 34.0037 53.9941 33.9057L58.0001 32.9227V31.7427H53.2571V26.6067H56.7961ZM63.5293 40.3686C62.7103 39.5496 62.3003 38.3216 62.3003 36.6826V27.2456C62.3003 26.2466 61.8423 25.8126 60.9243 25.9436L61.1213 24.5916L64.5373 23.9526L65.0773 24.3946V37.8866L66.5523 39.7796L64.4873 41.3266L63.5293 40.3686ZM73.1138 41.327C76.7668 41.327 78.5938 39.321 78.5938 35.307C78.5938 33.423 78.1108 31.973 77.1438 30.956C76.1938 29.974 74.8498 29.482 73.1138 29.482C71.4748 29.482 70.1808 29.982 69.2308 30.981C68.2478 32.013 67.7568 33.455 67.7568 35.307C67.7568 37.289 68.2318 38.788 69.1818 39.804C70.1158 40.82 71.4268 41.327 73.1138 41.327ZM75.7188 35.331C75.7188 32.595 74.8428 31.227 73.0898 31.227C72.2858 31.227 71.6558 31.628 71.1968 32.431C70.8038 33.136 70.6068 34.094 70.6068 35.307C70.6068 38.157 71.4338 39.582 73.0898 39.582C74.8428 39.582 75.7188 38.165 75.7188 35.331ZM83.2192 37.4607V30.2148H81.346C81.346 30.2148 80.7082 35.9459 80.5886 37.6245C80.4691 39.3029 81.2264 41.4725 83.817 41.4725C86.4077 41.4725 87.6832 39.3847 87.6832 39.3847L89.2377 41.4725L91.1905 39.8759L89.8355 38.0748V30.2966L89.2774 29.6825L86.0889 30.5422V31.7703C86.0889 31.7703 87.3245 32.3844 87.3245 33.1212V37.2969C87.3245 38.3204 85.6106 39.5075 84.8135 39.5075C84.0165 39.5075 83.2192 38.607 83.2192 37.4607ZM99.9077 32.7016C99.4157 32.1286 98.8587 31.8416 98.2367 31.8416C97.1717 31.8416 96.2707 32.2836 95.5327 33.1686L95.7297 34.9626V38.5746C95.7297 39.0506 95.8857 39.3616 96.1967 39.5086C96.4267 39.6066 96.8687 39.6566 97.5237 39.6566L97.2287 41.0816H92.9527V32.6526C92.9527 31.6856 92.4937 31.2516 91.5767 31.3496L91.7737 29.9976L95.1897 29.3596L95.7297 29.8266V31.4486C95.7457 31.4486 95.7627 31.4396 95.7797 31.4236C96.1887 30.8666 96.6887 30.4086 97.2787 30.0476C97.9007 29.6706 98.5067 29.4826 99.0967 29.4826C99.9317 29.4826 100.629 29.7276 101.186 30.2196L100.154 32.6276L99.9077 32.7016ZM105.411 27.3441C105.657 27.0661 105.78 26.7541 105.78 26.4101C105.78 26.0341 105.649 25.7141 105.387 25.4521C105.125 25.1901 104.813 25.0581 104.453 25.0581C104.076 25.0581 103.757 25.1901 103.495 25.4521C103.233 25.7141 103.101 26.0341 103.101 26.4101C103.101 26.7711 103.233 27.0821 103.495 27.3441C103.757 27.6061 104.076 27.7371 104.453 27.7371C104.83 27.7371 105.149 27.6061 105.411 27.3441ZM104.33 40.3681C103.511 39.5171 103.101 38.2881 103.101 36.6821V32.6521C103.101 31.6531 102.643 31.2191 101.725 31.3501L101.922 29.9981L105.338 29.3591L105.879 29.8021V37.8871L107.353 39.7791L105.264 41.3271L104.33 40.3681ZM115.463 40.4179C116.282 39.8449 116.692 39.0339 116.692 37.9849C116.692 37.1329 116.233 36.3219 115.316 35.5519C115.201 35.4539 114.93 35.2569 114.504 34.9629L112.76 33.8079C111.842 33.2019 111.392 32.7099 111.408 32.3329C111.424 31.6779 111.9 31.3499 112.834 31.3499C113.718 31.3499 114.283 31.5469 114.529 31.9399L114.824 33.0459C114.906 33.4229 115.209 33.6109 115.734 33.6109C115.963 33.6109 116.208 33.5869 116.471 33.5369V30.9569C115.684 29.9739 114.456 29.4829 112.784 29.4829C111.523 29.4829 110.531 29.7529 109.811 30.2929C109.106 30.8009 108.737 31.5299 108.705 32.4809C108.672 33.3979 109.098 34.2339 109.983 34.9869C110.195 35.1839 111.04 35.7409 112.514 36.6579C113.415 37.2149 113.866 37.7229 113.866 38.1819C113.866 39.0669 113.112 39.5089 111.605 39.5089H108.926V40.9339C109.811 41.1959 110.843 41.3269 112.023 41.3269C113.481 41.3269 114.628 41.0249 115.463 40.4179ZM126.35 33.7583C126.121 32.1533 125.474 31.3503 124.409 31.3503C123.508 31.3503 122.598 31.9153 121.681 33.0453L121.927 34.6923V41.0813H119.15V27.2463C119.15 26.2463 118.691 25.8123 117.773 25.9433L117.97 24.5913L121.386 23.9523L121.927 24.3953V31.2763C122.877 30.0803 124.048 29.4823 125.441 29.4823C126.538 29.4823 127.407 29.8263 128.046 30.5143C128.717 31.2683 129.054 32.3083 129.054 33.6353V41.0813H127.308L126.35 33.7583ZM141.39 27.3441C141.635 27.0661 141.758 26.7541 141.758 26.4101C141.758 26.0341 141.626 25.7141 141.364 25.4521C141.103 25.1901 140.79 25.0581 140.431 25.0581C140.054 25.0581 139.735 25.1901 139.473 25.4521C139.209 25.7141 139.078 26.0341 139.078 26.4101C139.078 26.7711 139.209 27.0821 139.473 27.3441C139.735 27.6061 140.054 27.7371 140.431 27.7371C140.808 27.7371 141.126 27.6061 141.39 27.3441ZM140.308 40.3681C139.487 39.5171 139.078 38.2881 139.078 36.6821V32.6521C139.078 31.6531 138.619 31.2191 137.702 31.3501L137.9 29.9981L141.316 29.3591L141.857 29.8021V37.8871L143.33 39.7791L141.241 41.3271L140.308 40.3681ZM150.557 31.3503C151.62 31.3503 152.269 32.1533 152.498 33.7583L153.455 41.0813H155.2V33.6113C155.2 32.2833 154.855 31.2513 154.169 30.5143C153.529 29.8263 152.67 29.4823 151.589 29.4823C150.227 29.4823 149.072 30.0803 148.123 31.2763H148.073V29.8013L147.532 29.3593L144.116 29.9983L143.921 31.3503C144.839 31.2183 145.297 31.6533 145.297 32.6523V41.0813H148.073V34.6923L147.827 33.0453C148.745 31.9153 149.654 31.3503 150.557 31.3503ZM171.197 40.9834C170.149 41.2124 169.216 41.3274 168.396 41.3274C167.25 41.3274 166.341 41.0074 165.669 40.3684C164.965 39.6804 164.644 38.7884 164.711 37.6904L165.325 26.3854L167.487 25.9434V29.7284H170.976V31.5954H167.487V37.8134C167.487 38.9434 167.963 39.5084 168.913 39.5084H171.197V40.9834ZM178.694 31.3503C179.757 31.3503 180.405 32.1533 180.634 33.7583L181.592 41.0813H183.337V33.6353C183.337 32.3083 183.001 31.2683 182.329 30.5143C181.692 29.8263 180.821 29.4823 179.726 29.4823C178.331 29.4823 177.16 30.0803 176.21 31.2763V24.3953L175.669 23.9523L172.253 24.5913L172.058 25.9433C172.976 25.8123 173.434 26.2463 173.434 27.2463V41.0813H176.21V34.6923L175.964 33.0453C176.882 31.9153 177.791 31.3503 178.694 31.3503ZM188.795 36.5598C188.809 37.3798 189.113 38.0678 189.704 38.6238C190.276 39.1648 190.989 39.4348 191.842 39.4348H192.973V41.0568C192.219 41.2368 191.547 41.3268 190.957 41.3268C189.433 41.3268 188.181 40.7458 187.196 39.5828C186.214 38.4198 185.723 36.9938 185.723 35.3068C185.723 33.5208 186.255 32.0788 187.319 30.9818C188.303 29.9818 189.54 29.4828 191.03 29.4828C192.456 29.4828 193.618 29.9078 194.519 30.7598C195.683 31.8418 196.249 33.4798 196.216 35.6758H188.131L188.795 36.5598ZM193.464 33.5128C193.513 33.7748 193.537 33.9958 193.537 34.1758H189.309L188.572 34.1518C188.803 32.2508 189.68 31.3008 191.203 31.3008C192.464 31.3008 193.218 32.0378 193.464 33.5128ZM219.02 34.7168C219.02 36.7978 218.456 38.4198 217.325 39.5828C216.162 40.7458 214.555 41.3268 212.507 41.3268C210.836 41.3268 209.444 40.8198 208.331 39.8038C207.069 38.6408 206.438 37.0018 206.438 34.8888V28.3028C206.438 27.4508 206.373 26.9018 206.242 26.6558C206.029 26.2138 205.552 25.9928 204.816 25.9928V24.3208H210.541L210.911 25.9928C209.781 25.9928 209.214 26.4188 209.214 27.2708V34.5938C209.214 36.1008 209.437 37.1418 209.88 37.7148C210.571 38.5998 211.433 39.0418 212.468 39.0418C214.752 39.0418 216.001 37.5098 216.215 34.4458L216.93 24.3208H219.02V34.7168ZM229.943 39.9266C230.867 39.1236 231.348 38.0426 231.38 36.6826C231.398 35.0776 230.765 33.7426 229.483 32.6766C229.351 32.5626 228.151 31.8496 225.883 30.5386C224.583 29.8016 223.95 28.9986 223.984 28.1306C224.017 27.5086 224.278 27.0336 224.771 26.7046C225.244 26.3616 225.893 26.2056 226.711 26.2386C227.81 26.2876 228.488 26.5416 228.751 26.9996C228.865 27.1966 228.981 27.6876 229.096 28.4746C229.178 28.9986 229.44 29.2616 229.882 29.2616C230.159 29.2616 230.504 29.1876 230.913 29.0396V25.4026C230.618 25.1576 230.11 24.8946 229.391 24.6166C228.441 24.2726 227.53 24.0996 226.662 24.0996C225.057 24.0996 223.771 24.5266 222.805 25.3796C221.837 26.2176 221.355 27.3336 221.355 28.7276C221.355 30.1726 221.984 31.4026 223.246 32.4196L225.017 33.5036L226.761 34.6106C228.023 35.3986 228.637 36.2606 228.605 37.1956C228.605 37.6876 228.391 38.1226 227.964 38.4996C227.474 38.9436 226.802 39.1646 225.949 39.1646L221.747 39.1156V40.9096C222.582 41.1716 223.827 41.3026 225.484 41.3026C227.384 41.3026 228.869 40.8446 229.943 39.9266ZM248.509 40.4675C248.509 40.6805 248.418 40.8765 248.238 41.0575C248.026 41.2365 247.813 41.3275 247.6 41.3275C247.191 41.3275 246.904 41.1465 246.739 40.7865L244.652 36.4615H237.525L236.566 38.7955C236.517 38.9105 236.491 39.0255 236.491 39.1405C236.491 39.5665 236.917 39.7795 237.771 39.7795L237.327 41.0815H231.947V39.7795C232.863 39.7795 233.419 39.5495 233.616 39.0905L238.778 26.5575C238.826 26.4265 238.852 26.3205 238.852 26.2385C238.852 25.7795 238.483 25.5505 237.744 25.5505L238.262 24.2475H241.922L248.436 40.1225C248.485 40.2375 248.509 40.3525 248.509 40.4675ZM243.644 34.3725H238.384L240.769 28.2535L243.644 34.3725Z" fill="black"/>
<mask id="mask0" mask-type="alpha" maskUnits="userSpaceOnUse" x="6" y="23" width="243" height="19">
<path fill-rule="evenodd" clip-rule="evenodd" d="M13.4222 41.6955L17.9932 30.5635L22.4662 41.6955L28.6092 24.3705L27.0362 23.7315L22.6132 34.5935L18.2142 23.6825L13.7902 34.5935L11.2592 27.2705C11.2102 27.0905 11.1852 26.9425 11.1852 26.8285C11.1852 26.2715 11.8332 25.9925 13.1272 25.9925L12.5862 24.3215H6.00018V25.9925C6.75418 25.9925 7.29418 26.0835 7.62218 26.2625C7.73718 26.3285 7.83518 26.4265 7.91718 26.5575C7.98218 26.6885 8.05618 26.8445 8.13918 27.0245L13.4222 41.6955ZM33.5249 38.6238C32.9349 38.0678 32.6309 37.3798 32.6149 36.5598L31.9509 35.6758H40.0369C40.0689 33.4798 39.5039 31.8418 38.3409 30.7598C37.4399 29.9078 36.2759 29.4828 34.8509 29.4828C33.3599 29.4828 32.1239 29.9818 31.1409 30.9818C30.0749 32.0788 29.5429 33.5208 29.5429 35.3068C29.5429 36.9938 30.0349 38.4198 31.0179 39.5828C32.0009 40.7458 33.2539 41.3268 34.7769 41.3268C35.3669 41.3268 36.0389 41.2368 36.7929 41.0568V39.4348H35.6619C34.8099 39.4348 34.0979 39.1648 33.5249 38.6238ZM38.3579 34.1758C38.3579 33.9958 38.3339 33.7748 38.2839 33.5128C38.0389 32.0378 37.2849 31.3008 36.0239 31.3008C34.4999 31.3008 33.6229 32.2508 33.3939 34.1518L34.1309 34.1758H38.3579ZM56.7961 26.6067C57.6811 26.6067 58.2051 27.1727 58.3691 28.3027L60.0151 27.9587L59.5241 24.3217H48.9811L48.6381 26.0167C49.7681 26.0167 50.3331 26.4597 50.3331 27.3447V41.0817H53.3561V34.6427C53.3561 34.2497 53.5681 34.0037 53.9941 33.9057L58.0001 32.9227V31.7427H53.2571V26.6067H56.7961ZM63.5293 40.3686C62.7103 39.5496 62.3003 38.3216 62.3003 36.6826V27.2456C62.3003 26.2466 61.8423 25.8126 60.9243 25.9436L61.1213 24.5916L64.5373 23.9526L65.0773 24.3946V37.8866L66.5523 39.7796L64.4873 41.3266L63.5293 40.3686ZM73.1138 41.327C76.7668 41.327 78.5938 39.321 78.5938 35.307C78.5938 33.423 78.1108 31.973 77.1438 30.956C76.1938 29.974 74.8498 29.482 73.1138 29.482C71.4748 29.482 70.1808 29.982 69.2308 30.981C68.2478 32.013 67.7568 33.455 67.7568 35.307C67.7568 37.289 68.2318 38.788 69.1818 39.804C70.1158 40.82 71.4268 41.327 73.1138 41.327ZM75.7188 35.331C75.7188 32.595 74.8428 31.227 73.0898 31.227C72.2858 31.227 71.6558 31.628 71.1968 32.431C70.8038 33.136 70.6068 34.094 70.6068 35.307C70.6068 38.157 71.4338 39.582 73.0898 39.582C74.8428 39.582 75.7188 38.165 75.7188 35.331ZM83.2192 37.4607V30.2148H81.346C81.346 30.2148 80.7082 35.9459 80.5886 37.6245C80.4691 39.3029 81.2264 41.4725 83.817 41.4725C86.4077 41.4725 87.6832 39.3847 87.6832 39.3847L89.2377 41.4725L91.1905 39.8759L89.8355 38.0748V30.2966L89.2774 29.6825L86.0889 30.5422V31.7703C86.0889 31.7703 87.3245 32.3844 87.3245 33.1212V37.2969C87.3245 38.3204 85.6106 39.5075 84.8135 39.5075C84.0165 39.5075 83.2192 38.607 83.2192 37.4607ZM99.9077 32.7016C99.4157 32.1286 98.8587 31.8416 98.2367 31.8416C97.1717 31.8416 96.2707 32.2836 95.5327 33.1686L95.7297 34.9626V38.5746C95.7297 39.0506 95.8857 39.3616 96.1967 39.5086C96.4267 39.6066 96.8687 39.6566 97.5237 39.6566L97.2287 41.0816H92.9527V32.6526C92.9527 31.6856 92.4937 31.2516 91.5767 31.3496L91.7737 29.9976L95.1897 29.3596L95.7297 29.8266V31.4486C95.7457 31.4486 95.7627 31.4396 95.7797 31.4236C96.1887 30.8666 96.6887 30.4086 97.2787 30.0476C97.9007 29.6706 98.5067 29.4826 99.0967 29.4826C99.9317 29.4826 100.629 29.7276 101.186 30.2196L100.154 32.6276L99.9077 32.7016ZM105.411 27.3441C105.657 27.0661 105.78 26.7541 105.78 26.4101C105.78 26.0341 105.649 25.7141 105.387 25.4521C105.125 25.1901 104.813 25.0581 104.453 25.0581C104.076 25.0581 103.757 25.1901 103.495 25.4521C103.233 25.7141 103.101 26.0341 103.101 26.4101C103.101 26.7711 103.233 27.0821 103.495 27.3441C103.757 27.6061 104.076 27.7371 104.453 27.7371C104.83 27.7371 105.149 27.6061 105.411 27.3441ZM104.33 40.3681C103.511 39.5171 103.101 38.2881 103.101 36.6821V32.6521C103.101 31.6531 102.643 31.2191 101.725 31.3501L101.922 29.9981L105.338 29.3591L105.879 29.8021V37.8871L107.353 39.7791L105.264 41.3271L104.33 40.3681ZM115.463 40.4179C116.282 39.8449 116.692 39.0339 116.692 37.9849C116.692 37.1329 116.233 36.3219 115.316 35.5519C115.201 35.4539 114.93 35.2569 114.504 34.9629L112.76 33.8079C111.842 33.2019 111.392 32.7099 111.408 32.3329C111.424 31.6779 111.9 31.3499 112.834 31.3499C113.718 31.3499 114.283 31.5469 114.529 31.9399L114.824 33.0459C114.906 33.4229 115.209 33.6109 115.734 33.6109C115.963 33.6109 116.208 33.5869 116.471 33.5369V30.9569C115.684 29.9739 114.456 29.4829 112.784 29.4829C111.523 29.4829 110.531 29.7529 109.811 30.2929C109.106 30.8009 108.737 31.5299 108.705 32.4809C108.672 33.3979 109.098 34.2339 109.983 34.9869C110.195 35.1839 111.04 35.7409 112.514 36.6579C113.415 37.2149 113.866 37.7229 113.866 38.1819C113.866 39.0669 113.112 39.5089 111.605 39.5089H108.926V40.9339C109.811 41.1959 110.843 41.3269 112.023 41.3269C113.481 41.3269 114.628 41.0249 115.463 40.4179ZM126.35 33.7583C126.121 32.1533 125.474 31.3503 124.409 31.3503C123.508 31.3503 122.598 31.9153 121.681 33.0453L121.927 34.6923V41.0813H119.15V27.2463C119.15 26.2463 118.691 25.8123 117.773 25.9433L117.97 24.5913L121.386 23.9523L121.927 24.3953V31.2763C122.877 30.0803 124.048 29.4823 125.441 29.4823C126.538 29.4823 127.407 29.8263 128.046 30.5143C128.717 31.2683 129.054 32.3083 129.054 33.6353V41.0813H127.308L126.35 33.7583ZM141.39 27.3441C141.635 27.0661 141.758 26.7541 141.758 26.4101C141.758 26.0341 141.626 25.7141 141.364 25.4521C141.103 25.1901 140.79 25.0581 140.431 25.0581C140.054 25.0581 139.735 25.1901 139.473 25.4521C139.209 25.7141 139.078 26.0341 139.078 26.4101C139.078 26.7711 139.209 27.0821 139.473 27.3441C139.735 27.6061 140.054 27.7371 140.431 27.7371C140.808 27.7371 141.126 27.6061 141.39 27.3441ZM140.308 40.3681C139.487 39.5171 139.078 38.2881 139.078 36.6821V32.6521C139.078 31.6531 138.619 31.2191 137.702 31.3501L137.9 29.9981L141.316 29.3591L141.857 29.8021V37.8871L143.33 39.7791L141.241 41.3271L140.308 40.3681ZM150.557 31.3503C151.62 31.3503 152.269 32.1533 152.498 33.7583L153.455 41.0813H155.2V33.6113C155.2 32.2833 154.855 31.2513 154.169 30.5143C153.529 29.8263 152.67 29.4823 151.589 29.4823C150.227 29.4823 149.072 30.0803 148.123 31.2763H148.073V29.8013L147.532 29.3593L144.116 29.9983L143.921 31.3503C144.839 31.2183 145.297 31.6533 145.297 32.6523V41.0813H148.073V34.6923L147.827 33.0453C148.745 31.9153 149.654 31.3503 150.557 31.3503ZM171.197 40.9834C170.149 41.2124 169.216 41.3274 168.396 41.3274C167.25 41.3274 166.341 41.0074 165.669 40.3684C164.965 39.6804 164.644 38.7884 164.711 37.6904L165.325 26.3854L167.487 25.9434V29.7284H170.976V31.5954H167.487V37.8134C167.487 38.9434 167.963 39.5084 168.913 39.5084H171.197V40.9834ZM178.694 31.3503C179.757 31.3503 180.405 32.1533 180.634 33.7583L181.592 41.0813H183.337V33.6353C183.337 32.3083 183.001 31.2683 182.329 30.5143C181.692 29.8263 180.821 29.4823 179.726 29.4823C178.331 29.4823 177.16 30.0803 176.21 31.2763V24.3953L175.669 23.9523L172.253 24.5913L172.058 25.9433C172.976 25.8123 173.434 26.2463 173.434 27.2463V41.0813H176.21V34.6923L175.964 33.0453C176.882 31.9153 177.791 31.3503 178.694 31.3503ZM188.795 36.5598C188.809 37.3798 189.113 38.0678 189.704 38.6238C190.276 39.1648 190.989 39.4348 191.842 39.4348H192.973V41.0568C192.219 41.2368 191.547 41.3268 190.957 41.3268C189.433 41.3268 188.181 40.7458 187.196 39.5828C186.214 38.4198 185.723 36.9938 185.723 35.3068C185.723 33.5208 186.255 32.0788 187.319 30.9818C188.303 29.9818 189.54 29.4828 191.03 29.4828C192.456 29.4828 193.618 29.9078 194.519 30.7598C195.683 31.8418 196.249 33.4798 196.216 35.6758H188.131L188.795 36.5598ZM193.464 33.5128C193.513 33.7748 193.537 33.9958 193.537 34.1758H189.309L188.572 34.1518C188.803 32.2508 189.68 31.3008 191.203 31.3008C192.464 31.3008 193.218 32.0378 193.464 33.5128ZM219.02 34.7168C219.02 36.7978 218.456 38.4198 217.325 39.5828C216.162 40.7458 214.555 41.3268 212.507 41.3268C210.836 41.3268 209.444 40.8198 208.331 39.8038C207.069 38.6408 206.438 37.0018 206.438 34.8888V28.3028C206.438 27.4508 206.373 26.9018 206.242 26.6558C206.029 26.2138 205.552 25.9928 204.816 25.9928V24.3208H210.541L210.911 25.9928C209.781 25.9928 209.214 26.4188 209.214 27.2708V34.5938C209.214 36.1008 209.437 37.1418 209.88 37.7148C210.571 38.5998 211.433 39.0418 212.468 39.0418C214.752 39.0418 216.001 37.5098 216.215 34.4458L216.93 24.3208H219.02V34.7168ZM229.943 39.9266C230.867 39.1236 231.348 38.0426 231.38 36.6826C231.398 35.0776 230.765 33.7426 229.483 32.6766C229.351 32.5626 228.151 31.8496 225.883 30.5386C224.583 29.8016 223.95 28.9986 223.984 28.1306C224.017 27.5086 224.278 27.0336 224.771 26.7046C225.244 26.3616 225.893 26.2056 226.711 26.2386C227.81 26.2876 228.488 26.5416 228.751 26.9996C228.865 27.1966 228.981 27.6876 229.096 28.4746C229.178 28.9986 229.44 29.2616 229.882 29.2616C230.159 29.2616 230.504 29.1876 230.913 29.0396V25.4026C230.618 25.1576 230.11 24.8946 229.391 24.6166C228.441 24.2726 227.53 24.0996 226.662 24.0996C225.057 24.0996 223.771 24.5266 222.805 25.3796C221.837 26.2176 221.355 27.3336 221.355 28.7276C221.355 30.1726 221.984 31.4026 223.246 32.4196L225.017 33.5036L226.761 34.6106C228.023 35.3986 228.637 36.2606 228.605 37.1956C228.605 37.6876 228.391 38.1226 227.964 38.4996C227.474 38.9436 226.802 39.1646 225.949 39.1646L221.747 39.1156V40.9096C222.582 41.1716 223.827 41.3026 225.484 41.3026C227.384 41.3026 228.869 40.8446 229.943 39.9266ZM248.509 40.4675C248.509 40.6805 248.418 40.8765 248.238 41.0575C248.026 41.2365 247.813 41.3275 247.6 41.3275C247.191 41.3275 246.904 41.1465 246.739 40.7865L244.652 36.4615H237.525L236.566 38.7955C236.517 38.9105 236.491 39.0255 236.491 39.1405C236.491 39.5665 236.917 39.7795 237.771 39.7795L237.327 41.0815H231.947V39.7795C232.863 39.7795 233.419 39.5495 233.616 39.0905L238.778 26.5575C238.826 26.4265 238.852 26.3205 238.852 26.2385C238.852 25.7795 238.483 25.5505 237.744 25.5505L238.262 24.2475H241.922L248.436 40.1225C248.485 40.2375 248.509 40.3525 248.509 40.4675ZM243.644 34.3725H238.384L240.769 28.2535L243.644 34.3725Z" fill="white"/>
</mask>
<g mask="url(#mask0)">
<path fill-rule="evenodd" clip-rule="evenodd" d="M5 21H250V42H5V21Z" fill="#BF0A30"/>
</g>
<mask id="mask1" mask-type="alpha" maskUnits="userSpaceOnUse" x="35" y="0" width="186" height="19">
<path fill-rule="evenodd" clip-rule="evenodd" d="M42.7356 18.0133L47.3066 6.88131L51.7796 18.0133L57.9226 0.688305L56.3496 0.0493052L51.9266 10.9113L47.5276 0.000305176L43.1036 10.9113L40.5726 3.58831C40.5236 3.40831 40.4986 3.26031 40.4986 3.14631C40.4986 2.58931 41.1466 2.31031 42.4406 2.31031L41.8996 0.639305H35.3136V2.31031C36.0676 2.31031 36.6076 2.40131 36.9356 2.58031C37.0506 2.64631 37.1486 2.74431 37.2306 2.87531C37.2956 3.00631 37.3696 3.16231 37.4526 3.34231L42.7356 18.0133ZM61.9279 3.66201C62.1739 3.38401 62.2969 3.07201 62.2969 2.72801C62.2969 2.35201 62.1659 2.03201 61.9039 1.77001C61.6419 1.50801 61.3299 1.37601 60.9699 1.37601C60.5929 1.37601 60.2739 1.50801 60.0119 1.77001C59.7499 2.03201 59.6179 2.35201 59.6179 2.72801C59.6179 3.08901 59.7499 3.40001 60.0119 3.66201C60.2739 3.92401 60.5929 4.05501 60.9699 4.05501C61.3469 4.05501 61.6659 3.92401 61.9279 3.66201ZM60.8469 16.686C60.0279 15.835 59.6179 14.606 59.6179 13V8.97001C59.6179 7.97101 59.1599 7.53701 58.2419 7.66801L58.4389 6.31601L61.8549 5.67701L62.3959 6.12001V14.205L63.8699 16.097L61.7809 17.645L60.8469 16.686ZM69.1531 17.6453C69.9731 17.6453 70.9061 17.5303 71.9551 17.3013V15.8263H69.6691C68.7191 15.8263 68.2441 15.2613 68.2441 14.1313V7.91331H71.7341V6.04631H68.2441V2.26131L66.0811 2.70331L65.4671 14.0083C65.4011 15.1063 65.7211 15.9983 66.4261 16.6863C67.0971 17.3253 68.0061 17.6453 69.1531 17.6453ZM81.3916 10.0762C81.1626 8.47121 80.5156 7.6682 79.4506 7.6682C78.5496 7.6682 77.6396 8.23321 76.7226 9.36321L76.9686 11.0102V17.3992H74.1916V3.56421C74.1916 2.56421 73.7326 2.13021 72.8146 2.26121L73.0116 0.909205L76.4276 0.270205L76.9686 0.713205V7.5942C77.9186 6.3982 79.0896 5.80021 80.4826 5.80021C81.5796 5.80021 82.4486 6.1442 83.0876 6.8322C83.7586 7.58621 84.0956 8.62621 84.0956 9.95321V17.3992H82.3496L81.3916 10.0762ZM102.181 17.645C104.328 17.645 106.458 17.186 108.571 16.269V8.946H103.017L102.599 11.157H104.098C105.131 11.157 105.647 11.598 105.647 12.477V14.798C104.418 15.173 103.344 15.36 102.427 15.36C100.821 15.36 99.5188 14.788 98.5198 13.643C97.6838 12.678 97.1438 11.616 96.8978 10.454C96.7828 9.93101 96.7258 9.367 96.7258 8.762C96.7418 7.078 97.2578 5.64701 98.2738 4.47001C99.3718 3.22701 100.74 2.60501 102.378 2.60501C103.312 2.60501 104.107 2.68701 104.762 2.85101C105.04 2.93301 105.376 3.04001 105.77 3.17001C106.146 3.31801 106.58 3.49801 107.072 3.71101L107.736 1.67101C105.851 0.836005 104.041 0.418005 102.304 0.418005C99.7488 0.418005 97.6428 1.25401 95.9878 2.92501C94.3498 4.563 93.5308 6.636 93.5308 9.142C93.5308 11.616 94.3338 13.656 95.9398 15.261C97.5288 16.851 99.6088 17.645 102.181 17.645ZM118.475 9.0195C117.983 8.4465 117.426 8.1595 116.804 8.1595C115.739 8.1595 114.838 8.60151 114.1 9.48651L114.297 11.2805V14.8925C114.297 15.3685 114.453 15.6795 114.764 15.8265C114.994 15.9245 115.436 15.9745 116.091 15.9745L115.796 17.3995H111.52V8.9705C111.52 8.0035 111.061 7.5695 110.144 7.66751L110.341 6.31551L113.757 5.67751L114.297 6.14451V7.76651C114.313 7.76651 114.33 7.7575 114.347 7.7415C114.756 7.1845 115.256 6.72651 115.846 6.36551C116.468 5.9885 117.074 5.80051 117.664 5.80051C118.499 5.80051 119.196 6.04551 119.753 6.53751L118.721 8.94551L118.475 9.0195ZM124.889 14.9416C124.299 14.3856 123.994 13.6976 123.978 12.8776L123.316 11.9936H131.401C131.434 9.79761 130.868 8.15961 129.704 7.07761C128.803 6.22561 127.641 5.80061 126.215 5.80061C124.724 5.80061 123.488 6.29961 122.505 7.29961C121.439 8.39661 120.908 9.83861 120.908 11.6246C120.908 13.3116 121.398 14.7376 122.382 15.9006C123.365 17.0636 124.618 17.6446 126.142 17.6446C126.732 17.6446 127.404 17.5546 128.158 17.3746V15.7526H127.027C126.174 15.7526 125.461 15.4826 124.889 14.9416ZM128.722 10.4936C128.722 10.3136 128.698 10.0926 128.649 9.8306C128.403 8.35561 127.649 7.61861 126.387 7.61861C124.864 7.61861 123.988 8.56861 123.758 10.4696L124.494 10.4936H128.722ZM137.078 14.9416C136.487 14.3856 136.183 13.6976 136.169 12.8776L135.505 11.9936H143.59C143.623 9.79761 143.056 8.15961 141.893 7.07761C140.992 6.22561 139.83 5.80061 138.404 5.80061C136.914 5.80061 135.677 6.29961 134.693 7.29961C133.629 8.39661 133.097 9.83861 133.097 11.6246C133.097 13.3116 133.588 14.7376 134.57 15.9006C135.555 17.0636 136.806 17.6446 138.331 17.6446C138.921 17.6446 139.593 17.5546 140.347 17.3746V15.7526H139.216C138.363 15.7526 137.65 15.4826 137.078 14.9416ZM140.91 10.4936C140.91 10.3136 140.887 10.0926 140.838 9.8306C140.592 8.35561 139.838 7.61861 138.576 7.61861C137.054 7.61861 136.177 8.56861 135.946 10.4696L136.683 10.4936H140.91ZM155.409 7.17641C155.753 7.04541 155.925 6.84841 155.925 6.58641V6.04541H153.074L148.7 11.2314V0.712405L148.159 0.270405L144.743 0.909405L144.547 2.26141C145.465 2.13041 145.923 2.5644 145.923 3.5644V17.3994H148.7V13.0244C148.7 12.9604 148.726 12.8944 148.775 12.8284L148.898 12.6564C149.044 12.4604 149.216 12.4924 149.413 12.7544L153.738 17.1784C154.018 17.5224 154.328 17.6944 154.672 17.6944C154.95 17.6944 155.204 17.5794 155.435 17.3504C155.648 17.1044 155.753 16.8504 155.753 16.5884C155.753 16.3754 155.689 16.1794 155.558 15.9984L151.502 10.6164L152.632 9.3384L153.664 8.1594C154.026 7.75041 154.608 7.42141 155.409 7.17641ZM177.87 16.4901C177.87 16.7851 177.747 17.0471 177.501 17.2761C177.257 17.5221 176.987 17.6451 176.692 17.6451C176.363 17.6451 176.085 17.5061 175.858 17.2271L170.492 10.0761H168.779V14.4501C168.779 15.3021 169.344 15.7281 170.474 15.7281L170.106 17.3991H165.731V3.66211C165.731 2.77711 165.174 2.33511 164.06 2.33511L164.404 0.639105H170.733C172.447 0.639105 173.806 1.04111 174.803 1.84411C175.816 2.66311 176.321 3.77711 176.321 5.18511C176.321 7.10211 175.441 8.4711 173.677 9.2891L177.747 16.0481C177.829 16.1791 177.87 16.3271 177.87 16.4901ZM170.106 2.77711C172.219 2.77711 173.282 3.57211 173.3 5.16111C173.317 6.94711 172.209 7.84011 169.983 7.84011H168.654V2.77711H170.106ZM189.691 11.6249C189.691 15.6389 187.864 17.6449 184.212 17.6449C182.522 17.6449 181.212 17.1379 180.279 16.1219C179.329 15.1059 178.853 13.6069 178.853 11.6249C178.853 9.77291 179.344 8.3309 180.328 7.29891C181.278 6.29991 182.573 5.79991 184.212 5.79991C185.948 5.79991 187.291 6.29191 188.242 7.27391C189.208 8.2909 189.691 9.74091 189.691 11.6249ZM184.185 7.54491C185.938 7.54491 186.816 8.9129 186.816 11.6489C186.816 14.4829 185.938 15.8999 184.185 15.8999C182.532 15.8999 181.705 14.4749 181.705 11.6249C181.705 10.4119 181.901 9.45391 182.295 8.74891C182.753 7.94591 183.382 7.54491 184.185 7.54491ZM202.175 11.6249C202.175 15.6389 200.348 17.6449 196.696 17.6449C195.007 17.6449 193.696 17.1379 192.763 16.1219C191.813 15.1059 191.337 13.6069 191.337 11.6249C191.337 9.77291 191.828 8.3309 192.812 7.29891C193.762 6.29991 195.057 5.79991 196.696 5.79991C198.432 5.79991 199.775 6.29191 200.726 7.27391C201.692 8.2909 202.175 9.74091 202.175 11.6249ZM196.669 7.54491C198.423 7.54491 199.3 8.9129 199.3 11.6489C199.3 14.4829 198.423 15.8999 196.669 15.8999C195.016 15.8999 194.189 14.4749 194.189 11.6249C194.189 10.4119 194.385 9.45391 194.779 8.74891C195.237 7.94591 195.866 7.54491 196.669 7.54491ZM210.653 17.3013C209.604 17.5303 208.671 17.6453 207.851 17.6453C206.705 17.6453 205.796 17.3253 205.124 16.6863C204.42 15.9983 204.099 15.1063 204.166 14.0083L204.78 2.70331L206.942 2.26131V6.04631H210.431V7.91331H206.942V14.1313C206.942 15.2613 207.418 15.8263 208.368 15.8263H210.653V17.3013ZM219.033 16.7357C219.852 16.1627 220.262 15.3517 220.262 14.3027C220.262 13.4507 219.803 12.6397 218.886 11.8697C218.771 11.7717 218.499 11.5747 218.074 11.2807L216.328 10.1257C215.411 9.5197 214.96 9.02771 214.978 8.65071C214.993 7.9957 215.47 7.66771 216.404 7.66771C217.287 7.66771 217.854 7.86471 218.099 8.2577L218.394 9.3637C218.476 9.74071 218.779 9.92871 219.303 9.92871C219.533 9.92871 219.779 9.90471 220.039 9.8547V7.2747C219.253 6.29171 218.026 5.8007 216.355 5.8007C215.093 5.8007 214.102 6.0707 213.38 6.6107C212.675 7.1187 212.308 7.8477 212.275 8.79871C212.241 9.7157 212.667 10.5517 213.553 11.3047C213.766 11.5017 214.61 12.0587 216.083 12.9757C216.985 13.5327 217.436 14.0407 217.436 14.4997C217.436 15.3847 216.682 15.8267 215.174 15.8267H212.495V17.2517C213.38 17.5137 214.412 17.6447 215.591 17.6447C217.049 17.6447 218.198 17.3427 219.033 16.7357Z" fill="white"/>
</mask>
<g mask="url(#mask1)">
<path fill-rule="evenodd" clip-rule="evenodd" d="M36 0H224V21H36V0Z" fill="#002868"/>
</g>
</svg>
