<svg width="46" height="80" viewBox="0 0 46 80" fill="none" xmlns="http://www.w3.org/2000/svg">
<path fill-rule="evenodd" clip-rule="evenodd" d="M29.3318 9.0842L31.6527 7.86697L33.9736 9.0842L33.5282 6.50451L35.4073 4.68174L32.8113 4.30513L31.6527 1.96051L30.4916 4.30513L27.8969 4.68174L29.7748 6.50451L29.3318 9.0842Z" fill="#BF0A30"/>
<path fill-rule="evenodd" clip-rule="evenodd" d="M14.1628 36.6262L12.7278 38.1524L10.655 37.8373L11.668 39.6724L10.7278 41.5419L12.7883 41.1481L14.2813 42.6164L14.5416 40.5413L16.4035 39.5764L14.5046 38.6902L14.1628 36.6262Z" fill="#BF0A30"/>
<path fill-rule="evenodd" clip-rule="evenodd" d="M8.48631 35.7248L7.68307 36.398L6.67131 36.1199L7.06614 37.0885L6.48993 37.9623L7.535 37.8885L8.18895 38.7057L8.44189 37.6903L9.4228 37.3236L8.53319 36.7685L8.48631 35.7248Z" fill="#BF0A30"/>
<path fill-rule="evenodd" clip-rule="evenodd" d="M24.5181 17.1419L27.7397 15.4508L30.9625 17.1419L30.3468 13.5616L32.9552 11.0262L29.3523 10.5031L27.7397 7.24774L26.1282 10.5031L22.5254 11.0262L25.1325 13.5616L24.5181 17.1419Z" fill="#BF0A30"/>
<path fill-rule="evenodd" clip-rule="evenodd" d="M33.9479 12.2032L36.0344 14.229L35.5421 17.0955L38.1208 15.7429L40.6996 17.0955L40.2048 14.229L42.2925 12.2032L39.4102 11.7847L38.1208 9.1792L36.8302 11.7847L33.9479 12.2032Z" fill="#BF0A30"/>
<path fill-rule="evenodd" clip-rule="evenodd" d="M34.1491 18.9207L32.4415 15.4721L30.7338 18.9207L26.9188 19.4733L29.6814 22.1589L29.0287 25.9497L32.4415 24.1601L35.8556 25.9497L35.2029 22.1589L37.9642 19.4733L34.1491 18.9207Z" fill="#BF0A30"/>
<path fill-rule="evenodd" clip-rule="evenodd" d="M25.606 29.7177L28.1835 31.0703L27.69 28.2051L29.7777 26.178L26.8942 25.7595L25.606 23.1552L24.3154 25.7595L21.4319 26.178L23.5208 28.2051L23.026 31.0703L25.606 29.7177Z" fill="#C11531"/>
<path fill-rule="evenodd" clip-rule="evenodd" d="M35.2624 8.5686L34.8331 9.64921L35.9546 9.33291L36.8504 10.0763L36.8961 8.91198L37.8807 8.29291L36.7875 7.88921L36.4988 6.76306L35.7782 7.67752L34.6171 7.60368L35.2624 8.5686Z" fill="#BF0A30"/>
<path fill-rule="evenodd" clip-rule="evenodd" d="M18.3813 31.6383L17.3745 32.9171L15.7446 32.8125L16.6527 34.1651L16.0493 35.6765L17.6188 35.2346L18.8736 36.2734L18.9365 34.6475L20.316 33.7774L18.7848 33.2149L18.3813 31.6383Z" fill="#BF0A30"/>
<path fill-rule="evenodd" clip-rule="evenodd" d="M32.2911 28.1443L33.1881 28.8876L33.2337 27.7233L34.2183 27.103L33.1251 26.7006L32.8352 25.5744L32.1146 26.4889L30.9536 26.415L31.5989 27.3799L31.1707 28.4606L32.2911 28.1443Z" fill="#BF0A30"/>
<path fill-rule="evenodd" clip-rule="evenodd" d="M37.1324 35.5228L36.4119 36.4373L35.2508 36.3634L35.8961 37.3284L35.4667 38.409L36.5883 38.0927L37.4841 38.8348L37.5297 37.6718L38.5143 37.0514L37.4211 36.649L37.1324 35.5228Z" fill="#BF0A30"/>
<path fill-rule="evenodd" clip-rule="evenodd" d="M2.70179 30.2862L0.0958862 31.5809L2.71042 32.8572L3.14104 35.7311L5.16703 33.6412L8.03944 34.1237L6.67356 31.5563L8.01847 28.9791L5.15099 29.4825L3.11019 27.4086L2.70179 30.2862Z" fill="#BF0A30"/>
<path fill-rule="evenodd" clip-rule="evenodd" d="M12.3565 35.0385L14.6663 35.3388L13.5016 33.3253L14.5022 31.2281L12.2245 31.7117L10.5317 30.113L10.2886 32.4244L8.24164 33.5357L10.3713 34.481L10.797 36.7653L12.3565 35.0385Z" fill="#BF0A30"/>
<path fill-rule="evenodd" clip-rule="evenodd" d="M26.799 34.7957L26.1229 34.1557L26.0254 35.08L25.2073 35.5243L26.0562 35.9022L26.229 36.8179L26.8521 36.1262L27.7762 36.2468L27.3111 35.4406L27.7096 34.6012L26.799 34.7957Z" fill="#BF0A30"/>
<path fill-rule="evenodd" clip-rule="evenodd" d="M17.8729 25.4232L15.9036 23.2816L15.3978 26.1432L12.7474 27.3493L15.32 28.7142L15.6519 31.6016L17.7458 29.5819L20.6021 30.1592L19.3239 27.5487L20.7576 25.0182L17.8729 25.4232Z" fill="#BF0A30"/>
<path fill-rule="evenodd" clip-rule="evenodd" d="M31.3585 37.8113L28.971 38.7049L26.882 37.2513L26.9968 39.7892L24.9622 41.324L27.4212 41.9996L28.2541 44.4033L29.6594 42.2815L32.2061 42.2323L30.6169 40.2446L31.3585 37.8113Z" fill="#BF0A30"/>
<path fill-rule="evenodd" clip-rule="evenodd" d="M39.7636 20.822L36.8813 21.2393L38.9678 23.2663L38.4743 26.1316L41.0542 24.779L43.6318 26.1316L43.1395 23.2663L45.2259 21.2393L42.3424 20.822L41.0542 18.2165L39.7636 20.822Z" fill="#BF0A30"/>
<path fill-rule="evenodd" clip-rule="evenodd" d="M39.7653 29.3846L38.4759 26.7803L37.1853 29.3846L34.303 29.8031L36.3907 31.8302L35.8972 34.6942L38.4759 33.3428L41.0547 34.6942L40.5611 31.8302L42.6476 29.8031L39.7653 29.3846Z" fill="#BF0A30"/>
<path fill-rule="evenodd" clip-rule="evenodd" d="M35.4746 32.2188L32.5923 31.8004L31.3029 29.1948L30.0123 31.8004L27.13 32.2188L29.2177 34.2447L28.7229 37.1111L31.3029 35.7585L33.8817 37.1111L33.3881 34.2447L35.4746 32.2188Z" fill="#BF0A30"/>
<path fill-rule="evenodd" clip-rule="evenodd" d="M17.9475 14.6816L18.9667 17.4041L20.5127 14.9413L23.4234 14.817L21.5541 12.5881L22.3363 9.78929L19.633 10.8736L17.206 9.26868L17.4059 12.1671L15.1232 13.9727L17.9475 14.6816Z" fill="#302D7E"/>
<path fill-rule="evenodd" clip-rule="evenodd" d="M23.1083 19.0878L21.8189 16.4835L20.5295 19.0878L17.646 19.5062L19.7337 21.5333L19.2401 24.3973L21.8189 23.0459L24.3976 24.3973L23.9041 21.5333L25.9905 19.5062L23.1083 19.0878Z" fill="#002868"/>
<path fill-rule="evenodd" clip-rule="evenodd" d="M21.8229 -0.000366211L20.4126 2.84886L17.2614 3.30671L19.5415 5.52456L19.0048 8.65687L21.8229 7.17994L24.6423 8.65687L24.1055 5.52456L26.3857 3.30671L23.2332 2.84886L21.8229 -0.000366211Z" fill="#002868"/>
<path fill-rule="evenodd" clip-rule="evenodd" d="M8.24536 13.863L10.8019 17.3966L12.0592 13.223L16.2185 11.8889L12.6268 9.40765L12.6403 5.0495L9.16335 7.68827L5.01143 6.3295L6.45627 10.444L3.87628 13.9615L8.24536 13.863Z" fill="#002868"/>
<path fill-rule="evenodd" clip-rule="evenodd" d="M3.96104 17.8368L0.419877 16.99L1.9005 20.3082L0.000366211 23.406L3.62173 23.0257L5.98826 25.7875L6.74338 22.2343L10.1081 20.8435L6.95437 19.0257L6.66688 15.406L3.96104 17.8368Z" fill="#002868"/>
<path fill-rule="evenodd" clip-rule="evenodd" d="M10.6336 24.8666L9.73287 23.045L8.82968 24.8666L6.8111 25.1607L8.27198 26.581L7.92774 28.5847L9.73287 27.637L11.5368 28.5847L11.1925 26.581L12.6534 25.1607L10.6336 24.8666Z" fill="#002868"/>
<path fill-rule="evenodd" clip-rule="evenodd" d="M17.956 17.5024L15.0441 17.5258L13.3734 15.1442L12.4937 17.9147L9.70764 18.7615L12.0791 20.4513L12.0261 23.3584L14.3704 21.6304L17.1219 22.5781L16.2014 19.8224L17.956 17.5024Z" fill="#002868"/>
<path fill-rule="evenodd" clip-rule="evenodd" d="M13.9556 4.06735L14.8316 5.22797L15.2215 3.82981L16.601 3.3572L15.3856 2.5535L15.3609 1.1012L14.2196 2.00212L12.8278 1.57873L13.3362 2.93997L12.5009 4.13012L13.9556 4.06735Z" fill="#002868"/>
<path fill-rule="evenodd" clip-rule="evenodd" d="M15.8689 7.90032L16.9004 8.44062L16.703 7.29601L17.5383 6.4837L16.3847 6.31755L15.8689 5.27509L15.3532 6.31755L14.1983 6.4837L15.0336 7.29601L14.8362 8.44062L15.8689 7.90032Z" fill="#002868"/>
<path fill-rule="evenodd" clip-rule="evenodd" d="M26.8338 55.065C29.1816 61.2438 31.9893 64.1582 33.68 64.7766C34.4196 65.047 34.7992 65.8643 34.5282 66.602C34.3165 67.1778 33.7702 67.5352 33.189 67.5352C33.0259 67.5352 32.8603 67.5071 32.6982 67.4478C29.5913 66.3117 26.4816 62.1657 24.1666 56.0733C21.667 49.495 20.4813 41.542 20.8279 33.6799C20.8627 32.8949 21.5304 32.2891 22.3155 32.3212C23.1023 32.3557 23.7121 33.0199 23.6776 33.8047C23.3475 41.2896 24.4685 48.84 26.8338 55.065ZM18.3904 39.4309C19.1762 39.3899 19.8486 39.991 19.8907 40.7755C20.5576 53.2231 16.5494 65.6391 12.4532 70.0043C12.1725 70.3035 11.7926 70.4547 11.4118 70.4547C11.0625 70.4547 10.7127 70.3277 10.4375 70.0707C9.86259 69.5339 9.83278 68.6337 10.371 68.06C13.5936 64.6259 17.7048 53.2863 17.0424 40.9274C17.0004 40.143 17.6039 39.4728 18.3904 39.4309ZM19.7847 57.0488C19.7847 56.263 20.4234 55.6261 21.2109 55.6261C21.9984 55.6261 22.6371 56.263 22.6371 57.0488C22.6371 60.0933 19.6719 68.6332 15.7321 73.7414C15.4512 74.1057 15.0283 74.2968 14.6007 74.2968C14.2972 74.2968 13.9914 74.2005 13.7322 74.0017C13.1079 73.5226 12.9912 72.6295 13.4714 72.0068C17.3346 66.9978 19.7847 59.0591 19.7847 57.0488ZM10.5272 57.7187C10.7795 57.9003 11.0711 57.9873 11.3599 57.9873C11.8028 57.9873 12.2393 57.7823 12.518 57.3965C14.3265 54.8943 15.5687 46.8392 15.7993 45.2499C15.9122 44.4722 15.3718 43.7508 14.5922 43.6382C13.8128 43.5248 13.0896 44.0648 12.9765 44.8421C12.4807 48.2559 11.2895 54.2312 10.2042 55.733C9.74381 56.3701 9.88832 57.2595 10.5272 57.7187ZM24.6664 61.4228C23.8844 61.3542 23.1885 61.9283 23.117 62.7109C22.9032 65.0607 21.9415 71.1328 17.6441 76.7548C17.1666 77.3797 17.2872 78.2724 17.9134 78.7487C18.1717 78.9451 18.4755 79.04 18.777 79.04C19.2068 79.04 19.6316 78.8472 19.9122 78.4799C24.6593 72.2696 25.7215 65.5633 25.9578 62.9683C26.0289 62.1859 25.4508 61.4939 24.6664 61.4228ZM10.4928 62.4489C11.1705 62.8492 11.3946 63.7216 10.9933 64.3977C10.7269 64.8461 10.2521 65.0956 9.76487 65.0956C9.51769 65.0956 9.26755 65.0316 9.03952 64.8969C8.51852 64.5893 7.98981 64.2295 7.47985 63.8433C6.82617 64.4501 6.14801 64.9643 5.5198 65.2345C5.3358 65.3135 5.1443 65.3511 4.95595 65.3511C4.40375 65.3511 3.878 65.0291 3.64563 64.4913C3.33389 63.7697 3.66755 62.9327 4.39072 62.6216C4.64382 62.5129 4.9755 62.2681 5.34271 61.9416C4.78597 61.3516 4.35202 60.7854 4.12459 60.3181C3.78067 59.6113 4.07622 58.7603 4.78478 58.4173C5.49354 58.0744 6.34663 58.369 6.69054 59.0758C6.77287 59.2448 6.98313 59.5201 7.28677 59.8513C7.61272 59.4458 7.91735 59.0376 8.1746 58.6575C8.61525 58.0059 9.5015 57.8345 10.1544 58.2737C10.8073 58.7132 10.9794 59.5973 10.539 60.2487C10.3036 60.5965 9.90958 61.1361 9.42056 61.7383C9.76349 61.9892 10.1234 62.2305 10.4928 62.4489Z" fill="#008AC4"/>
</svg>
